#!OML:ASF E:\Style4\Style4.ASF
:FULLY-SPECIFIED
:DEGREES
1462
root 0.396977 17.7793 -0.793777 5.24361 13.7033 3.95422
lowerback 16.8264 5.60737 1.31078
upperback 11.6962 7.65793 -2.60096
thorax 3.74658 4.11956 -4.4539
lowerneck -5.96257 3.97313 -3.80617
upperneck -13.3493 5.62772 -0.706639
head -3.37663 3.10037 0.344856
rclavicle 2.90226e-014 -1.90833e-014
rhumerus -42.2399 10.6738 -94.5023
rradius 68.902
rwrist -5.70519
rhand -2.45021 -6.93945
rfingers 7.12502
rthumb 23.2415 -35.5569
lclavicle 2.90226e-014 -1.90833e-014
lhumerus -38.6715 -15.7313 91.5015
lradius 83.0971
lwrist -5.68281
lhand 4.58486 38.0761
lfingers 7.12502
lthumb 29.9739 65.668
rfemur -17.1613 1.00002 14.7147
rtibia 35.0629
rfoot -21.9298 -21.7377
rtoes -5.21188
lfemur -18.9067 -10.7223 -23.3336
ltibia 30.498
lfoot -15.1739 0.839904
ltoes -12.8416
1463
root 0.434014 17.7829 -0.786178 5.21642 14.0085 4.07161
lowerback 17.4734 5.41695 1.9353
upperback 11.28 7.47665 -2.8388
thorax 3.06103 4.05888 -5.12538
lowerneck -5.8608 3.97885 -3.52076
upperneck -13.1235 5.67527 -0.116286
head -3.32744 3.08654 0.488817
rclavicle -8.90555e-014 8.26944e-014
rhumerus -42.7739 9.94162 -94.8872
rradius 68.9949
rwrist -5.09158
rhand -2.20819 -6.9171
rfingers 7.12502
rthumb 23.4737 -35.5051
lclavicle -8.90555e-014 8.26944e-014
lhumerus -39.1668 -16.0851 91.2112
lradius 82.7653
lwrist -5.37643
lhand 4.61267 37.9644
lfingers 7.12502
lthumb 30.0005 65.5516
rfemur -16.9318 0.912297 14.5044
rtibia 35.0114
rfoot -22.006 -21.903
rtoes -5.2722
lfemur -18.6495 -10.7967 -23.583
ltibia 30.2206
lfoot -15.0597 0.646577
ltoes -12.7236
1464
root 0.470171 17.7856 -0.776344 5.17167 14.5498 4.28403
lowerback 16.5655 5.36589 1.52512
upperback 11.8406 7.37674 -2.16703
thorax 3.9744 3.97865 -4.04413
lowerneck -5.81057 3.94896 -3.95527
upperneck -13.5721 5.64308 -0.237525
head -3.50596 3.10409 0.515531
rclavicle -1.27222e-014 2.94201e-014
rhumerus -42.2997 10.2149 -93.8794
rradius 69.106
rwrist -5.22751
rhand -2.59172 -6.95771
rfingers 7.12502
rthumb 23.1057 -35.5923
lclavicle -1.27222e-014 2.94201e-014
lhumerus -38.3617 -15.7121 91.9767
lradius 82.1161
lwrist -5.23092
lhand 4.71039 37.7935
lfingers 7.12502
lthumb 30.0937 65.3637
rfemur -16.5793 0.772622 14.2248
rtibia 34.9605
rfoot -22.2211 -22.1631
rtoes -4.8076
lfemur -18.349 -11.1 -23.9072
ltibia 29.9394
lfoot -14.9213 0.342596
ltoes -12.0373
1465
root 0.504715 17.7875 -0.768832 5.17079 14.8929 4.39307
lowerback 16.6157 5.24339 1.75631
upperback 11.7469 7.24307 -2.07713
thorax 3.84951 3.91878 -4.0724
lowerneck -5.76842 3.921 -3.82704
upperneck -13.5666 5.62878 0.0528194
head -3.51722 3.08054 0.58809
rclavicle -8.62725e-014 3.57812e-014
rhumerus -42.4835 9.87132 -93.781
rradius 69.2575
rwrist -4.85621
rhand -2.37731 -7.03707
rfingers 7.12502
rthumb 23.3115 -35.6457
lclavicle -8.62725e-014 3.57812e-014
lhumerus -38.3522 -15.7931 92.038
lradius 81.5774
lwrist -4.9466
lhand 4.8299 37.8147
lfingers 7.12502
lthumb 30.2077 65.3641
rfemur -16.3697 0.78645 14.0382
rtibia 34.916
rfoot -22.3192 -22.4938
rtoes -4.71605
lfemur -18.1185 -11.2408 -24.1195
ltibia 29.6473
lfoot -14.7395 0.0081195
ltoes -11.0322
1466
root 0.540871 17.7907 -0.76328 5.26087 15.0423 4.53373
lowerback 16.4983 5.20833 1.86898
upperback 11.6737 7.20825 -1.95062
thorax 3.82142 3.89991 -3.98942
lowerneck -5.6746 3.8766 -3.73175
upperneck -13.5495 5.58188 0.261928
head -3.53116 3.04424 0.639328
rclavicle 6.36111e-015 -7.95139e-015
rhumerus -42.6166 9.49086 -93.4781
rradius 69.4362
rwrist -3.95992
rhand -1.5884 -7.14129
rfingers 7.12502
rthumb 24.0681 -35.652
lclavicle 6.36111e-015 -7.95139e-015
lhumerus -38.375 -15.8801 92.2073
lradius 81.1051
lwrist -4.71528
lhand 4.97951 37.753
lfingers 7.12502
lthumb 30.3504 65.2762
rfemur -16.3178 0.850733 13.7805
rtibia 34.8879
rfoot -22.3989 -22.7041
rtoes -4.61026
lfemur -17.9801 -11.2064 -24.3813
ltibia 29.3468
lfoot -14.5341 -0.218074
ltoes -10.631
